<svg width="12" height="12" viewBox="0 0 12 12" fill="none" xmlns="http://www.w3.org/2000/svg">
<path d="M4.8457 8.25C4.67773 8.25 4.51562 8.22461 4.35938 8.17383C4.20703 8.11914 4.06836 8.04492 3.94336 7.95117C3.81836 7.85742 3.70898 7.74414 3.61523 7.61133C3.52148 7.47852 3.45117 7.33008 3.4043 7.16602L1.89844 1.91016C1.87109 1.8125 1.83008 1.73633 1.77539 1.68164C1.72461 1.62695 1.66406 1.58594 1.59375 1.55859C1.52734 1.53125 1.45312 1.51562 1.37109 1.51172C1.29297 1.50391 1.21094 1.5 1.125 1.5C1.02344 1.5 0.935547 1.46289 0.861328 1.38867C0.787109 1.31445 0.75 1.22656 0.75 1.125C0.75 1.03125 0.767578 0.958984 0.802734 0.908203C0.841797 0.857422 0.890625 0.820312 0.949219 0.796875C1.00781 0.773438 1.07227 0.759766 1.14258 0.755859C1.2168 0.751953 1.28711 0.75 1.35352 0.75C1.49805 0.75 1.63672 0.773438 1.76953 0.820312C1.90625 0.867188 2.0293 0.933594 2.13867 1.01953C2.25195 1.10156 2.34961 1.20117 2.43164 1.31836C2.51367 1.43164 2.57617 1.55859 2.61914 1.69922L2.77734 2.25H10.5C10.6016 2.25 10.6973 2.26953 10.7871 2.30859C10.8809 2.34766 10.9609 2.40234 11.0273 2.47266C11.0977 2.53906 11.1523 2.61914 11.1914 2.71289C11.2305 2.80273 11.25 2.89844 11.25 3C11.25 3.06641 11.2402 3.13477 11.2207 3.20508L10.0898 7.16016C10.043 7.32031 9.97266 7.4668 9.87891 7.59961C9.78516 7.73242 9.67383 7.84766 9.54492 7.94531C9.41992 8.04297 9.2793 8.11914 9.12305 8.17383C8.9707 8.22461 8.8125 8.25 8.64844 8.25H4.8457ZM8.64844 7.5C8.81641 7.5 8.9668 7.45117 9.09961 7.35352C9.23242 7.25195 9.32227 7.11914 9.36914 6.95508L10.5 3H2.98828L4.125 6.95508C4.17188 7.11914 4.26172 7.25195 4.39453 7.35352C4.52734 7.45117 4.67773 7.5 4.8457 7.5H8.64844ZM3.75 10.125C3.75 9.97266 3.7793 9.82812 3.83789 9.69141C3.89648 9.55469 3.97656 9.43555 4.07812 9.33398C4.18359 9.22852 4.30469 9.14648 4.44141 9.08789C4.57812 9.0293 4.72266 9 4.875 9C5.02734 9 5.17188 9.0293 5.30859 9.08789C5.44531 9.14648 5.56445 9.22852 5.66602 9.33398C5.77148 9.43555 5.85352 9.55469 5.91211 9.69141C5.9707 9.82812 6 9.97266 6 10.125C6 10.2773 5.9707 10.4219 5.91211 10.5586C5.85352 10.6953 5.77148 10.8164 5.66602 10.9219C5.56445 11.0234 5.44531 11.1035 5.30859 11.1621C5.17188 11.2207 5.02734 11.25 4.875 11.25C4.72266 11.25 4.57812 11.2207 4.44141 11.1621C4.30469 11.1035 4.18359 11.0234 4.07812 10.9219C3.97656 10.8164 3.89648 10.6953 3.83789 10.5586C3.7793 10.4219 3.75 10.2773 3.75 10.125ZM7.5 10.125C7.5 9.97266 7.5293 9.82812 7.58789 9.69141C7.64648 9.55469 7.72656 9.43555 7.82812 9.33398C7.93359 9.22852 8.05469 9.14648 8.19141 9.08789C8.32812 9.0293 8.47266 9 8.625 9C8.77734 9 8.92188 9.0293 9.05859 9.08789C9.19531 9.14648 9.31445 9.22852 9.41602 9.33398C9.52148 9.43555 9.60352 9.55469 9.66211 9.69141C9.7207 9.82812 9.75 9.97266 9.75 10.125C9.75 10.2773 9.7207 10.4219 9.66211 10.5586C9.60352 10.6953 9.52148 10.8164 9.41602 10.9219C9.31445 11.0234 9.19531 11.1035 9.05859 11.1621C8.92188 11.2207 8.77734 11.25 8.625 11.25C8.47266 11.25 8.32812 11.2207 8.19141 11.1621C8.05469 11.1035 7.93359 11.0234 7.82812 10.9219C7.72656 10.8164 7.64648 10.6953 7.58789 10.5586C7.5293 10.4219 7.5 10.2773 7.5 10.125ZM5.25 10.125C5.25 10.0234 5.21289 9.93555 5.13867 9.86133C5.06445 9.78711 4.97656 9.75 4.875 9.75C4.77344 9.75 4.68555 9.78711 4.61133 9.86133C4.53711 9.93555 4.5 10.0234 4.5 10.125C4.5 10.2266 4.53711 10.3145 4.61133 10.3887C4.68555 10.4629 4.77344 10.5 4.875 10.5C4.97656 10.5 5.06445 10.4629 5.13867 10.3887C5.21289 10.3145 5.25 10.2266 5.25 10.125ZM9 10.125C9 10.0234 8.96289 9.93555 8.88867 9.86133C8.81445 9.78711 8.72656 9.75 8.625 9.75C8.52344 9.75 8.43555 9.78711 8.36133 9.86133C8.28711 9.93555 8.25 10.0234 8.25 10.125C8.25 10.2266 8.28711 10.3145 8.36133 10.3887C8.43555 10.4629 8.52344 10.5 8.625 10.5C8.72656 10.5 8.81445 10.4629 8.88867 10.3887C8.96289 10.3145 9 10.2266 9 10.125Z" fill="#111111"/>
</svg>
